<svg version="1.1" viewBox="0.0 0.0 320.0 132.0" fill="none" stroke="none" stroke-linecap="square" stroke-miterlimit="10" xmlns:xlink="http://www.w3.org/1999/xlink" xmlns="http://www.w3.org/2000/svg"><clipPath id="p.0"><path d="m0 0l320.0 0l0 132.0l-320.0 0l0 -132.0z" clip-rule="nonzero"/></clipPath><g clip-path="url(#p.0)"><path fill="#000000" fill-opacity="0.0" d="m0 0l320.0 0l0 132.0l-320.0 0z" fill-rule="evenodd"/><path fill="#000000" fill-opacity="0.0" d="m0 0l320.0 0l0 132.0l-320.0 0z" fill-rule="evenodd"/><path fill="#000000" d="m42.640045 87.5459q-6.40625 0 -11.046875 -2.578125q-4.640625 -2.578125 -7.109375 -7.328125q-2.453125 -4.765625 -2.453125 -11.296875q0 -6.53125 2.453125 -11.3125q2.46875 -4.78125 7.109375 -7.390625q4.640625 -2.609375 11.046875 -2.609375q6.484375 0 11.09375 2.609375q4.609375 2.609375 7.0625 7.390625q2.46875 4.78125 2.46875 11.3125q0 6.53125 -2.46875 11.296875q-2.453125 4.75 -7.0625 7.328125q-4.609375 2.578125 -11.09375 2.578125zm0 -9.0q2.875 0 4.90625 -1.421875q2.03125 -1.4375 3.109375 -4.15625q1.09375 -2.71875 1.09375 -6.625q0 -3.890625 -1.09375 -6.640625q-1.078125 -2.75 -3.109375 -4.203125q-2.03125 -1.46875 -4.90625 -1.46875q-2.859375 0 -4.890625 1.46875q-2.03125 1.453125 -3.125 4.203125q-1.078125 2.75 -1.078125 6.640625q0 3.90625 1.078125 6.625q1.09375 2.71875 3.125 4.15625q2.03125 1.421875 4.890625 1.421875zm26.121887 16.671875l0 -39.53125l10.828125 0l0.234375 6.484375l-0.75 -0.296875q1.140625 -3.3125 3.65625 -5.09375q2.53125 -1.78125 5.96875 -1.78125q4.125 0 6.984375 2.0625q2.875 2.0625 4.359375 5.703125q1.484375 3.640625 1.484375 8.390625q0 4.703125 -1.515625 8.375q-1.515625 3.65625 -4.40625 5.71875q-2.890625 2.0625 -7.015625 2.0625q-2.1875 0 -4.078125 -0.828125q-1.890625 -0.828125 -3.296875 -2.375q-1.390625 -1.546875 -2.078125 -3.671875l0.75 -0.234375l0 15.015625l-11.125 0zm16.21875 -15.875q2.40625 0 3.78125 -2.203125q1.375 -2.203125 1.375 -5.984375q0 -3.78125 -1.375 -5.984375q-1.375 -2.203125 -3.78125 -2.203125q-1.609375 0 -2.765625 0.921875q-1.140625 0.90625 -1.734375 2.75q-0.59375 1.828125 -0.59375 4.515625q0 2.6875 0.59375 4.53125q0.59375 1.828125 1.734375 2.75q1.15625 0.90625 2.765625 0.90625zm35.513992 7.96875q-5.21875 0 -8.65625 -1.34375q-3.4375 -1.34375 -5.21875 -3.6875q-1.765625 -2.359375 -2.0 -5.390625l11.171875 -0.296875q0.34375 1.84375 1.484375 2.734375q1.15625 0.875 3.265625 0.875q1.78125 0 2.671875 -0.5625q0.890625 -0.578125 0.890625 -1.671875q0 -0.796875 -0.40625 -1.34375q-0.40625 -0.546875 -1.53125 -0.9375q-1.109375 -0.40625 -3.28125 -0.75q-5.203125 -0.859375 -8.15625 -2.0q-2.953125 -1.140625 -4.15625 -3.0q-1.203125 -1.875 -1.203125 -4.734375q0 -4.640625 3.71875 -7.421875q3.734375 -2.78125 11.40625 -2.78125q4.75 0 7.953125 1.375q3.21875 1.375 4.953125 3.875q1.75 2.484375 2.09375 5.875l-11.0 0.34375q-0.109375 -1.4375 -0.65625 -2.40625q-0.546875 -0.984375 -1.40625 -1.46875q-0.859375 -0.484375 -2.0625 -0.484375q-1.59375 0 -2.59375 0.71875q-1.0 0.71875 -1.0 2.03125q0 0.859375 0.421875 1.4375q0.421875 0.5625 1.453125 0.90625q1.03125 0.34375 2.75 0.578125q5.109375 0.625 8.203125 1.890625q3.09375 1.265625 4.484375 3.234375q1.40625 1.96875 1.40625 4.78125q0 3.09375 -1.78125 5.25q-1.765625 2.140625 -5.125 3.265625q-3.34375 1.109375 -8.09375 1.109375zm19.811462 -0.6875l0 -40.671875l14.953125 0q10.25 0 15.75 5.296875q5.5 5.296875 5.5 15.09375q0 9.734375 -5.421875 15.015625q-5.40625 5.265625 -15.484375 5.265625l-15.296875 0zm11.234375 -9.0l3.71875 0q5.09375 0 7.40625 -2.734375q2.328125 -2.75 2.328125 -8.59375q0 -5.84375 -2.328125 -8.59375q-2.3125 -2.75 -7.40625 -2.75l-3.71875 0l0 22.671875zm29.77887 9.0l0 -40.671875l17.078125 0q7.78125 0 12.046875 2.671875q4.28125 2.65625 4.28125 8.4375q0 2.46875 -0.953125 4.25q-0.9375 1.765625 -2.828125 2.828125q-1.890625 1.0625 -4.640625 1.40625l0 0.109375q5.09375 0.515625 7.609375 3.015625q2.53125 2.484375 2.53125 6.71875q0 5.734375 -4.25 8.484375q-4.234375 2.75 -12.078125 2.75l-18.796875 0zm11.234375 -8.59375l6.8125 0q2.46875 0 4.15625 -1.0q1.6875 -1.0 1.6875 -3.1875q0 -2.171875 -1.671875 -3.203125q-1.65625 -1.03125 -4.171875 -1.03125l-6.8125 0l0 8.421875zm0 -15.75l5.375 0q2.40625 0 3.984375 -0.9375q1.578125 -0.953125 1.578125 -2.90625q0 -2.0625 -1.546875 -2.96875q-1.546875 -0.921875 -4.015625 -0.921875l-5.375 0l0 7.734375zm25.086395 24.34375l14.65625 -40.671875l12.78125 0l14.656235 40.671875l-11.45311 0l-2.28125 -6.703125l-14.671875 0l-2.28125 6.703125l-11.40625 0zm16.671875 -15.40625l8.765625 0l-4.359375 -12.890625l-4.40625 12.890625z" fill-rule="nonzero"/><path fill="#000000" d="m269.80402 83.81152q0 1.34375 -1.0 2.328125q-0.984375 0.96875 -2.34375 0.96875q-1.359375 0 -2.359375 -0.96875q-0.984375 -0.96875 -0.984375 -2.328125q0 -1.34375 0.984375 -2.328125q1.0 -1.0 2.359375 -1.0q1.359375 0 2.34375 1.0q1.0 1.0 1.0 2.328125z" fill-rule="nonzero"/><path fill="#3d85c6" d="m279.87897 87.0459q-2.875 0 -4.59375 -1.3125q-1.703125 -1.328125 -1.703125 -3.71875q0 -2.375 1.4375 -3.703125q1.4375 -1.34375 4.453125 -1.9375l6.328125 -1.203125q0 -2.140625 -1.015625 -3.203125q-1.0 -1.0625 -2.96875 -1.0625q-1.765625 0 -2.765625 0.78125q-1.0 0.78125 -1.390625 2.3125l-3.765625 -0.25q0.515625 -2.765625 2.578125 -4.359375q2.0625 -1.59375 5.34375 -1.59375q3.734375 0 5.6875 2.0q1.96875 1.984375 1.96875 5.578125l0 7.171875q0 0.65625 0.21875 0.921875q0.234375 0.25 0.75 0.25l0.65625 0l0 2.90625q-0.171875 0.03125 -0.5625 0.0625q-0.375 0.046875 -0.796875 0.046875q-1.171875 0 -2.015625 -0.375q-0.84375 -0.390625 -1.265625 -1.265625q-0.421875 -0.890625 -0.421875 -2.375l0.390625 0.171875q-0.28125 1.203125 -1.203125 2.140625q-0.90625 0.9375 -2.3125 1.484375q-1.40625 0.53125 -3.03125 0.53125zm0.59375 -2.90625q1.65625 0 2.828125 -0.640625q1.1875 -0.640625 1.84375 -1.78125q0.65625 -1.15625 0.65625 -2.609375l0 -1.171875l-5.40625 1.03125q-1.65625 0.3125 -2.328125 1.0q-0.671875 0.671875 -0.671875 1.703125q0 1.1875 0.8125 1.828125q0.8125 0.640625 2.265625 0.640625zm13.527283 2.484375l0 -18.40625l3.671875 0l0 18.40625l-3.671875 0zm-0.0625 -21.078125l0 -3.671875l3.8125 0l0 3.671875l-3.8125 0z" fill-rule="nonzero"/><path fill="#000000" fill-opacity="0.0" d="m23.054243 -31.900831l128.50394 0l0 11.748032l-128.50394 0z" fill-rule="evenodd"/><path fill="#000000" d="m27.882368 -22.900833q-0.796875 0 -1.375 -0.3125q-0.5625 -0.328125 -0.859375 -0.921875q-0.296875 -0.59375 -0.296875 -1.40625q0 -0.828125 0.296875 -1.421875q0.296875 -0.59375 0.859375 -0.921875q0.578125 -0.328125 1.375 -0.328125q0.796875 0 1.359375 0.328125q0.5625 0.328125 0.859375 0.921875q0.3125 0.59375 0.3125 1.421875q0 0.8125 -0.3125 1.40625q-0.296875 0.59375 -0.859375 0.921875q-0.5625 0.3125 -1.359375 0.3125zm0 -1.015625q0.390625 0 0.65625 -0.1875q0.28125 -0.203125 0.4375 -0.5625q0.15625 -0.359375 0.15625 -0.875q0 -0.53125 -0.15625 -0.890625q-0.15625 -0.375 -0.4375 -0.5625q-0.265625 -0.203125 -0.671875 -0.203125q-0.375 0 -0.65625 0.203125q-0.28125 0.1875 -0.4375 0.5625q-0.140625 0.359375 -0.140625 0.890625q0 0.515625 0.140625 0.875q0.15625 0.359375 0.4375 0.5625q0.28125 0.1875 0.671875 0.1875zm3.2608032 1.984375l0 -4.9375l1.2031269 0l0.015625 0.8125l-0.09375 -0.03125q0.140625 -0.421875 0.453125 -0.640625q0.328125 -0.21875 0.765625 -0.21875q0.53125 0 0.875 0.265625q0.359375 0.25 0.546875 0.703125q0.1875 0.453125 0.1875 1.046875q0 0.5625 -0.1875 1.03125q-0.1875 0.453125 -0.546875 0.71875q-0.359375 0.265625 -0.890625 0.265625q-0.28125 0 -0.515625 -0.109375q-0.234375 -0.109375 -0.421875 -0.296875q-0.171875 -0.1875 -0.25 -0.453125l0.09375 -0.03125l0 1.875l-1.2343769 0zm1.9531269 -1.90625q0.34375 0 0.53125 -0.296875q0.203125 -0.296875 0.203125 -0.796875q0 -0.515625 -0.203125 -0.8125q-0.1875 -0.296875 -0.53125 -0.296875q-0.21875 0 -0.390625 0.125q-0.15625 0.125 -0.25 0.375q-0.078125 0.234375 -0.078125 0.609375q0 0.359375 0.078125 0.609375q0.09375 0.234375 0.25 0.359375q0.171875 0.125 0.390625 0.125zm4.3496704 0.921875q-0.625 0 -1.046875 -0.171875q-0.421875 -0.171875 -0.640625 -0.46875q-0.21875 -0.296875 -0.234375 -0.671875l1.234375 -0.03125q0.046875 0.25 0.203125 0.390625q0.171875 0.125 0.484375 0.125q0.25 0 0.390625 -0.078125q0.140625 -0.09375 0.140625 -0.25q0 -0.125 -0.0625 -0.1875q-0.046875 -0.078125 -0.203125 -0.125q-0.15625 -0.0625 -0.453125 -0.109375q-0.640625 -0.109375 -1.0 -0.25q-0.359375 -0.15625 -0.5 -0.375q-0.140625 -0.234375 -0.140625 -0.578125q0 -0.5625 0.4375 -0.90625q0.453125 -0.34375 1.359375 -0.34375q0.578125 0 0.953125 0.171875q0.390625 0.171875 0.59375 0.484375q0.21875 0.296875 0.265625 0.6875l-1.234375 0.046875q-0.015625 -0.171875 -0.09375 -0.296875q-0.078125 -0.140625 -0.203125 -0.203125q-0.125 -0.078125 -0.296875 -0.078125q-0.234375 0 -0.375 0.109375q-0.140625 0.109375 -0.140625 0.28125q0 0.125 0.0625 0.203125q0.0625 0.078125 0.203125 0.140625q0.140625 0.046875 0.390625 0.078125q0.625 0.078125 0.984375 0.234375q0.375 0.15625 0.546875 0.40625q0.171875 0.234375 0.171875 0.578125q0 0.375 -0.21875 0.640625q-0.21875 0.265625 -0.625 0.40625q-0.40625 0.140625 -0.953125 0.140625zm2.4506073 -0.09375l0 -5.09375l1.8125 0q1.265625 0 1.9375 0.671875q0.6875 0.65625 0.6875 1.890625q0 1.21875 -0.671875 1.875q-0.671875 0.65625 -1.90625 0.65625l-1.859375 0zm1.25 -1.015625l0.5625 0q0.6875 0 1.015625 -0.375q0.328125 -0.375 0.328125 -1.15625q0 -0.78125 -0.328125 -1.15625q-0.328125 -0.375 -1.015625 -0.375l-0.5625 0l0 3.0625zm3.841919 1.015625l0 -5.09375l2.0625 0q0.953125 0 1.46875 0.34375q0.53125 0.328125 0.53125 1.046875q0 0.3125 -0.125 0.546875q-0.125 0.21875 -0.375 0.359375q-0.234375 0.125 -0.578125 0.171875l0 0q0.640625 0.046875 0.96875 0.375q0.328125 0.3125 0.328125 0.84375q0 0.71875 -0.515625 1.0625q-0.515625 0.34375 -1.46875 0.34375l-2.296875 0zm1.25 -0.984375l0.96875 0q0.359375 0 0.578125 -0.140625q0.21875 -0.140625 0.21875 -0.4375q0 -0.296875 -0.21875 -0.4375q-0.21875 -0.15625 -0.578125 -0.15625l-0.96875 0l0 1.171875zm0 -2.03125l0.765625 0q0.359375 0 0.578125 -0.140625q0.21875 -0.140625 0.21875 -0.40625q0 -0.28125 -0.21875 -0.40625q-0.21875 -0.140625 -0.578125 -0.140625l-0.765625 0l0 1.09375zm3.2242584 3.015625l1.84375 -5.09375l1.4375 0l1.84375 5.09375l-1.28125 0l-0.328125 -0.96875l-1.890625 0l-0.34375 0.96875l-1.28125 0zm1.953125 -1.953125l1.21875 0l-0.59375 -1.796875l-0.625 1.796875z" fill-rule="nonzero"/><path fill="#000000" d="m55.99791 -23.385208q0 0.234375 -0.09375 0.328125q-0.078125 0.078125 -0.28125 0.078125q-0.21875 0 -0.296875 -0.078125q-0.078125 -0.078125 -0.078125 -0.328125q0 -0.25 0.078125 -0.328125q0.078125 -0.078125 0.296875 -0.078125q0.21875 0 0.296875 0.078125q0.078125 0.078125 0.078125 0.328125z" fill-rule="nonzero"/><path fill="#000000" d="m57.79277 -22.947708q-0.46875 0 -0.75 -0.203125q-0.28125 -0.21875 -0.28125 -0.609375q0 -0.390625 0.234375 -0.609375q0.234375 -0.21875 0.734375 -0.3125l1.03125 -0.203125q0 -0.34375 -0.171875 -0.515625q-0.15625 -0.171875 -0.484375 -0.171875q-0.28125 0 -0.453125 0.125q-0.15625 0.125 -0.21875 0.375l-0.625 -0.046875q0.09375 -0.453125 0.421875 -0.703125q0.34375 -0.265625 0.875 -0.265625q0.609375 0 0.921875 0.328125q0.328125 0.328125 0.328125 0.90625l0 1.171875q0 0.109375 0.03125 0.15625q0.046875 0.046875 0.125 0.046875l0.109375 0l0 0.46875q-0.015625 0 -0.078125 0q-0.0625 0.015625 -0.140625 0.015625q-0.1875 0 -0.328125 -0.0625q-0.140625 -0.0625 -0.203125 -0.203125q-0.0625 -0.140625 -0.0625 -0.390625l0.0625 0.03125q-0.046875 0.203125 -0.203125 0.359375q-0.15625 0.140625 -0.390625 0.234375q-0.21875 0.078125 -0.484375 0.078125zm0.09375 -0.46875q0.28125 0 0.46875 -0.09375q0.1875 -0.109375 0.296875 -0.296875q0.109375 -0.1875 0.109375 -0.4375l0 -0.1875l-0.875 0.171875q-0.28125 0.046875 -0.390625 0.15625q-0.109375 0.109375 -0.109375 0.28125q0 0.203125 0.125 0.3125q0.140625 0.09375 0.375 0.09375zm2.2129364 0.40625l0 -3.015625l0.609375 0l0 3.015625l-0.609375 0zm-0.015625 -3.4375l0 -0.609375l0.625 0l0 0.609375l-0.625 0z" fill-rule="nonzero"/></g></svg>